<svg width="81" height="80" viewBox="0 0 81 80" fill="none" xmlns="http://www.w3.org/2000/svg">
<circle cx="40.5" cy="40" r="40" fill="#DCE9FF"/>
<path d="M39.9805 11.4286C35.4351 11.4286 32.7143 12.1319 30.9848 13.0088C30.119 13.4484 29.5043 13.9099 29.0909 14.3824C28.6753 14.855 28.4134 15.5495 28.4134 15.5495C28.3455 15.726 28.3004 15.9107 28.2792 16.0989L27.1277 31.1407C27.1126 31.233 27.1429 31.3824 27.1277 31.4835L26.9935 32.9956C26.9809 33.1323 26.9809 33.2699 26.9935 33.4066C26.9935 40.6594 32.8377 46.5934 39.9805 46.5934C47.1234 46.5934 52.9675 40.6594 52.9675 33.4066V33.0638C52.9679 33.041 52.9679 33.0183 52.9675 32.9956L51.6818 16.0989C51.6606 15.9107 51.6155 15.726 51.5476 15.5495C51.5476 15.5495 51.2857 14.855 50.8701 14.3824C50.4567 13.9077 49.842 13.4462 48.9762 13.0088C47.2468 12.1297 44.526 11.4286 39.9805 11.4286ZM39.9805 46.5934C25.6948 46.5934 14.0065 53.4198 14.0065 59.5736V68.5714H65.9545V59.5736C65.9545 53.7275 55.3874 47.2879 42.0779 46.6616C41.3797 46.6148 40.6802 46.592 39.9805 46.5934ZM39.9805 15.8242C44.0931 15.8242 46.1472 16.4835 47.0152 16.9231C47.3052 17.0703 47.3398 17.1275 47.4221 17.1978L48.3009 28.4616C46.3095 28.5846 43.5952 29.011 39.9805 29.011C36.3658 29.011 33.6537 28.5846 31.6602 28.4616L32.539 17.1978C32.619 17.1275 32.6558 17.0703 32.9459 16.9231C33.8139 16.4835 35.868 15.8242 39.9805 15.8242ZM38.2208 18.022V20.633H35.6515V24.2044H38.2229V26.8132H41.7381V24.2022H44.3095V20.633H41.7381V18.022H38.2229H38.2208ZM33.487 51.5385L39.0346 64.1758H18.3355V59.5736C18.3355 57.9363 23.855 53.1407 33.487 51.5385ZM46.474 51.5385C56.1061 53.1429 61.6255 57.9363 61.6255 59.5736V64.1758H40.9264L46.474 51.5385Z" fill="white"/>
</svg>
