<svg width="16" height="14" viewBox="0 0 16 14" fill="none" xmlns="http://www.w3.org/2000/svg">
<path d="M12.2828 3.29L16 7.014L12.2828 10.71V8.232H6.72054V5.768H12.2828V3.29ZM10.0471 10.458L11.4747 11.956C10.0741 13.3187 8.55668 14 6.92256 14C4.97419 14 3.33333 13.3303 2 11.991C0.666667 10.6517 0 8.97866 0 6.972C0 5.712 0.305275 4.54533 0.915825 3.472C1.52637 2.39867 2.35017 1.55167 3.38721 0.931C4.42424 0.310333 5.54882 0 6.76094 0C8.41302 0 9.9798 0.690666 11.4613 2.072L10.0471 3.556C9.02357 2.58533 7.93266 2.1 6.77441 2.1C5.43659 2.1 4.30752 2.58533 3.38721 3.556C2.46689 4.52667 2.00673 5.712 2.00673 7.112C2.00673 8.41866 2.48036 9.54333 3.42761 10.486C4.37486 11.4287 5.48597 11.9 6.76094 11.9C7.93715 11.9 9.03255 11.4193 10.0471 10.458Z" fill="#7AB3EA"/>
</svg>
